<?xml version="1.0" encoding="UTF-8" standalone="no"?>
<svg
   xmlns:dc="http://purl.org/dc/elements/1.1/"
   xmlns:cc="http://creativecommons.org/ns#"
   xmlns:rdf="http://www.w3.org/1999/02/22-rdf-syntax-ns#"
   xmlns:svg="http://www.w3.org/2000/svg"
   xmlns="http://www.w3.org/2000/svg"
   xmlns:sodipodi="http://sodipodi.sourceforge.net/DTD/sodipodi-0.dtd"
   xmlns:inkscape="http://www.inkscape.org/namespaces/inkscape"
   version="1.1"
   width="612"
   height="792"
   id="svg23"
   viewBox="0 0 612 792"
   sodipodi:docname="HELI Logo.cdr">
  <metadata
     id="metadata29">
    <rdf:RDF>
      <cc:Work
         rdf:about="">
        <dc:format>image/svg+xml</dc:format>
        <dc:type
           rdf:resource="http://purl.org/dc/dcmitype/StillImage" />
      </cc:Work>
    </rdf:RDF>
  </metadata>
  <defs
     id="defs27" />
  <sodipodi:namedview
     pagecolor="#ffffff"
     bordercolor="#666666"
     borderopacity="1"
     objecttolerance="10"
     gridtolerance="10"
     guidetolerance="10"
     inkscape:pageopacity="0"
     inkscape:pageshadow="2"
     inkscape:window-width="640"
     inkscape:window-height="480"
     id="namedview25" />
  <g
     id="Layer1000">
    <path
       d="m 228.9404,519.0727 v 17.3582 h 147.6431 v -17.3582 z"
       style="fill:#1b414c;fill-rule:evenodd"
       id="path2" />
    <path
       d="m 309.7619,279.3039 v -17.7132 c 0,-8.1348 -10.9999,-7.3474 -10.9999,-0.0218 v 18 c 0,6.2538 10.9999,7.1626 10.9999,-0.265 z"
       style="fill:#1b414c;fill-rule:evenodd"
       id="path4" />
    <path
       d="m 341.8444,287.9694 c 4.0646,-3.7851 12.9175,-24.3119 12.9175,-27.4003 0,-4.0529 -2.2366,-5 -5.9999,-5 -3.9534,0 -15,25.4339 -15,28.0001 -1.5506,3.8338 4.776,7.4789 8.0824,4.4002 z"
       style="fill:#1b414c;fill-rule:evenodd"
       id="path6" />
    <path
       d="m 366.762,308.569 c 4.5429,0 15.9274,-9.1579 16.2891,-14.0025 0.1961,-2.6003 -2.9719,-6.4242 -6.2893,-4.9975 -2.6192,0 -14.9998,10.2654 -14.9998,12.9999 -0.3027,3.2528 2.0506,6.2822 5,6.0001 z"
       style="fill:#1b414c;fill-rule:evenodd"
       id="path8" />
    <path
       d="m 317.7621,309.5691 c 18.3622,4.2778 39.9999,22.4603 39.9999,43.9999 v 9 c 0,29.5901 -39.9999,50.8054 -39.9999,68.0001 0,4.1723 1.832,5.1157 3.9999,6.9998 h 4 c 0.9573,-0.6412 21.5167,-28.9292 27.2653,-34.7346 9.5035,-9.5972 17.7347,-24.3963 17.7347,-43.2652 v -3.0002 c 0,-32.8115 -30.7848,-60.9998 -64,-60.9998 h -6.9999 c -32.3989,0 -64.0001,29.1115 -64.0001,59.9998 v 7.0001 c 0,12.608 6.5917,25.4535 12.1623,32.8377 2.3627,3.1317 18.3824,23.1622 20.8378,23.1622 h 4 c 2.3318,0 5,-2.668 5,-5 v -0.9998 c 0,-7.7091 -29.0001,-25.3188 -29.0001,-49 v -7.0002 c 0,-34.9313 38.6722,-54.0677 69.0001,-46.9998 z"
       style="fill:#1b414c;fill-rule:evenodd"
       id="path10" />
    <path
       d="m 321.762,437.5689 c -2.1679,-1.8841 -3.9999,-2.8275 -3.9999,-6.9998 0,-17.1947 39.9999,-38.41 39.9999,-68.0001 v -9 c 0,-21.5396 -21.6377,-39.7221 -39.9999,-43.9999 -62.9507,-0.2727 -78.7099,48.5855 -39.7324,93.7321 4.8407,5.6072 22.1426,27.1817 22.7322,34.2677 z"
       style="fill:none"
       id="path12" />
    <path
       d="m 316.762,453.5688 c 4.2795,0 8,-3.0824 8,-6.9999 0,-3.9058 -5.4233,-6 -10.0001,-6 H 289.762 c -5.5429,0 -9,1.3915 -9,7.0001 v 1.0001 c 0,3.2326 3.6301,4.9997 6.9999,4.9997 z"
       style="fill:#1b414c;fill-rule:evenodd"
       id="path14" />
    <path
       d="m 322.7621,471.5688 c 0.5224,-2.2425 0.9998,-2.2989 0.9998,-4.9997 v -2.0002 c 0,-3.2326 -3.6301,-5 -6.9999,-5 h -29.9999 c -2.408,0 -6.0001,3.5921 -6.0001,6.0001 0,4.6681 2.3318,6.9999 6.9999,6.9999 h 30.0002 c 2.7008,0 2.7572,-0.4774 5,-1.0001 z"
       style="fill:#1b414c;fill-rule:evenodd"
       id="path16" />
    <path
       d="m 229.7747,466.128 h 13.0385 v 18.559 h 18.4014 v 10.3575 h -18.4014 v 18.6114 h -13.0385 z m 29.9863,0 h 13.0385 c 0,9.779 0,15.9216 0,18.4277 0,2.5062 0,4.2849 0,5.3363 0,1.0516 0,2.8304 0,5.3365 0,2.5061 0,8.6485 0,18.4274 H 259.761 Z m 22.0972,18.559 h 31.6502 v 10.4627 h -18.5065 v 7.9387 h 18.5065 v 10.5675 h -31.6502 z m 0,-18.559 h 31.7554 v 10.6727 h -31.7554 z m 41.0768,0 h 13.1437 v 36.9604 h 18.5066 v 10.5675 H 322.935 Z m 39.3418,0 h 13.0385 c 0,9.779 0,15.9216 0,18.4277 0,2.5062 0,4.2849 0,5.3363 0,1.0516 0,2.8304 0,5.3365 0,2.5061 0,8.6485 0,18.4274 h -13.0385 z"
       style="fill:#e30016;fill-rule:evenodd"
       id="path18" />
    <path
       d="m 233.5436,532.2577 v -9.0238 h 1.5489 v 3.5399 h 2.1345 v -3.5399 h 1.5485 v 9.0238 h -1.5485 v -4.0898 h -2.1345 v 4.0898 z m 6.6561,0 v -9.0238 h 4.2993 v 1.4998 h -2.7505 v 2.086 h 2.5591 v 1.4301 h -2.5591 v 2.484 h 2.8154 v 1.5239 z m 5.5102,0 v -9.0238 h 1.5596 v 7.4877 h 2.8134 v 1.5361 z m 6.9341,-5.074 h 0.6511 c 0.4859,0 0.8255,-0.102 1.0217,-0.3078 0.195,-0.2041 0.2931,-0.5562 0.2931,-1.0522 0,-0.4998 -0.0888,-0.8459 -0.2688,-1.0398 -0.18,-0.1942 -0.521,-0.29 -1.0236,-0.29 h -0.6735 z m -1.5057,5.074 v -9.0238 h 2.7056 c 0.8255,0 1.4208,0.1999 1.7825,0.5978 0.3614,0.398 0.5434,1.05 0.5434,1.9582 0,0.8898 -0.1931,1.552 -0.5786,1.988 -0.3858,0.4359 -0.9757,0.6539 -1.7694,0.6539 h -1.135 v 3.8259 z m 6.0641,0 v -9.0238 h 1.5599 v 9.0238 z m 2.9824,0 v -9.0238 h 1.6024 l 2.179,6.3099 -0.0425,-6.3099 h 1.4726 v 9.0238 h -1.5911 l -2.196,-6.3218 0.0425,6.3218 z m 10.7642,0 -0.115,-0.9961 c -0.1594,0.434 -0.3765,0.7441 -0.6546,0.9301 -0.2763,0.1879 -0.6585,0.282 -1.1443,0.282 -0.8756,0 -1.493,-0.358 -1.8491,-1.072 -0.3577,-0.7141 -0.536,-2.026 -0.536,-3.932 0,-0.89 0.0428,-1.6038 0.1279,-2.1398 0.0856,-0.5381 0.2191,-0.9522 0.3988,-1.2462 0.2171,-0.358 0.5063,-0.6239 0.8643,-0.7959 0.358,-0.1721 0.805,-0.258 1.3371,-0.258 0.8977,0 1.5599,0.2279 1.9862,0.686 0.4249,0.4561 0.6381,1.1659 0.6381,2.1319 v 0.228 h -1.4559 v -0.0939 c 0,-0.538 -0.0927,-0.9459 -0.28,-1.222 -0.1871,-0.2741 -0.4655,-0.4121 -0.8343,-0.4121 -0.4527,0 -0.7625,0.1882 -0.9295,0.5621 -0.1666,0.3761 -0.2503,1.3699 -0.2503,2.982 0,1.2739 0.08,2.126 0.2393,2.556 0.1593,0.43 0.447,0.644 0.8643,0.644 0.4118,0 0.7064,-0.1522 0.8827,-0.4561 0.1763,-0.3061 0.2636,-0.822 0.2636,-1.548 v -0.3101 h -1.0814 v -1.4419 h 2.5815 v 4.922 z m 5.2039,0 v -9.0238 h 1.5599 v 7.4877 h 2.8134 v 1.5361 z m 7.0529,-3.6221 h 1.3263 l -0.6678,-3.7839 z m -2.2383,3.6221 1.8859,-9.0238 h 2.092 l 1.9012,9.0238 h -1.6784 l -0.4139,-2.268 h -1.7932 l -0.4025,2.268 z m 6.6986,0 v -9.0238 h 2.3482 l 1.146,5.8419 1.1461,-5.8419 h 2.3479 v 9.0238 h -1.4893 l 0.0335,-8.0039 -1.5599,8.0039 h -0.9567 l -1.5599,-8.0039 0.0391,8.0039 z m 9.9167,-5.074 h 0.6511 c 0.4856,0 0.8252,-0.102 1.0216,-0.3078 0.1948,-0.2041 0.2931,-0.5562 0.2931,-1.0522 0,-0.4998 -0.0887,-0.8459 -0.269,-1.0398 -0.1797,-0.1942 -0.5207,-0.29 -1.0236,-0.29 h -0.6732 z m -1.506,5.074 v -9.0238 h 2.7059 c 0.8255,0 1.4207,0.1999 1.7824,0.5978 0.3615,0.398 0.5434,1.05 0.5434,1.9582 0,0.8898 -0.193,1.552 -0.5785,1.988 -0.3861,0.4359 -0.9757,0.6539 -1.7694,0.6539 h -1.135 v 3.8259 z m 8.8463,0 v -9.0238 h 1.5596 v 9.0238 z m 2.9821,0 v -9.0238 h 1.6024 l 2.179,6.3099 -0.0425,-6.3099 h 1.4726 v 9.0238 h -1.5911 l -2.196,-6.3218 0.0425,6.3218 z m 8.1603,-1.33 h 0.6903 c 0.352,0 0.597,-0.028 0.7398,-0.0819 0.1409,-0.0541 0.252,-0.148 0.3356,-0.2821 0.1446,-0.2341 0.2486,-0.5558 0.3099,-0.964 0.0612,-0.4079 0.0927,-1.0619 0.0927,-1.9599 0,-0.8739 -0.0372,-1.512 -0.1095,-1.91 -0.0725,-0.398 -0.1947,-0.7001 -0.369,-0.902 -0.091,-0.102 -0.2078,-0.174 -0.3507,-0.214 -0.1426,-0.0419 -0.3671,-0.0621 -0.6712,-0.0621 h -0.6679 z m -1.5261,1.33 v -9.0238 h 2.5035 c 0.5122,0 0.9182,0.0459 1.2206,0.1398 0.3022,0.0941 0.5525,0.246 0.7472,0.458 0.2948,0.3082 0.5009,0.6982 0.6234,1.1682 0.1202,0.472 0.1814,1.2019 0.1814,2.196 0,1.2798 -0.0405,2.1858 -0.1242,2.7159 -0.0833,0.5281 -0.2262,0.9779 -0.4246,1.3498 -0.1927,0.3702 -0.4601,0.6302 -0.8011,0.7762 -0.343,0.1459 -0.9365,0.2199 -1.7804,0.2199 z m 6.5412,0 v -9.0238 h 1.5596 v 9.0238 z m 4.6069,-3.6221 h 1.326 l -0.6675,-3.7839 z m -2.2386,3.6221 1.8859,-9.0238 h 2.0923 l 1.9009,9.0238 h -1.6784 l -0.4139,-2.268 h -1.7931 l -0.4023,2.268 z m 10.9866,-5.074 h 0.6508 c 0.4859,0 0.8254,-0.102 1.0219,-0.3078 0.1947,-0.2041 0.2931,-0.5562 0.2931,-1.0522 0,-0.4998 -0.089,-0.8459 -0.269,-1.0398 -0.1797,-0.1942 -0.521,-0.29 -1.0236,-0.29 h -0.6732 z m -1.5061,5.074 v -9.0238 h 2.706 c 0.8251,0 1.4207,0.1999 1.7824,0.5978 0.3614,0.398 0.5434,1.05 0.5434,1.9582 0,0.8898 -0.193,1.552 -0.5786,1.988 -0.386,0.4359 -0.9759,0.6539 -1.7693,0.6539 h -1.135 v 3.8259 z m 7.3777,0 -1.879,-9.0238 h 1.6673 l 1.2447,7.2017 1.1256,-7.2017 h 1.645 l -1.7544,9.0238 z m 5.9624,0 v -7.5359 h -1.7934 v -1.4879 h 5.1465 v 1.4879 h -1.7932 v 7.5359 z m 3.0306,0 v -1.618 h 1.402 v 1.618 z m 5.5856,0 v -9.0238 h 1.5599 v 7.4877 h 2.8134 v 1.5361 z m 5.7124,0 v -7.5359 h -1.7938 v -1.4879 h 5.1466 v 1.4879 h -1.7932 v 7.5359 z m 5.6991,-1.33 h 0.6902 c 0.3521,0 0.597,-0.028 0.7398,-0.0819 0.1409,-0.0541 0.252,-0.148 0.3357,-0.2821 0.1445,-0.2341 0.2483,-0.5558 0.3098,-0.964 0.0612,-0.4079 0.0927,-1.0619 0.0927,-1.9599 0,-0.8739 -0.0371,-1.512 -0.1094,-1.91 -0.0726,-0.398 -0.1948,-0.7001 -0.3691,-0.902 -0.091,-0.102 -0.2078,-0.174 -0.3506,-0.214 -0.1426,-0.0419 -0.3671,-0.0621 -0.6713,-0.0621 h -0.6678 z m -1.5262,1.33 v -9.0238 h 2.5036 c 0.5122,0 0.9181,0.0459 1.2205,0.1398 0.3022,0.0941 0.5525,0.246 0.7473,0.458 0.2948,0.3082 0.5008,0.6982 0.6233,1.1682 0.1202,0.472 0.1814,1.2019 0.1814,2.196 0,1.2798 -0.0405,2.1858 -0.1241,2.7159 -0.0834,0.5281 -0.2262,0.9779 -0.4247,1.3498 -0.1927,0.3702 -0.46,0.6302 -0.801,0.7762 -0.343,0.1459 -0.9366,0.2199 -1.7805,0.2199 z m 6.5191,0 v -1.618 h 1.402 v 1.618 z"
       style="fill:#ffffff;fill-rule:evenodd"
       id="path20" />
  </g>
</svg>
